<svg width="0" height="0" style="position:absolute"><symbol fill="none" viewBox="0 0 32 33" id="ico-copyright" xmlns="http://www.w3.org/2000/svg"><path d="M16 0C7.178 0 0 7.402 0 16.5 0 25.598 7.178 33 16 33s16-7.402 16-16.5C32 7.402 24.822 0 16 0zm0 28.5c-6.416 0-11.636-5.383-11.636-12S9.584 4.5 16 4.5c6.416 0 11.636 5.383 11.636 12s-5.22 12-11.636 12zm4.323-9.26l2.359 2.26-1.19 1.072a7.994 7.994 0 01-5.354 2.084c-4.414 0-8.005-3.627-8.005-8.085 0-4.447 3.591-8.065 8.005-8.065a7.96 7.96 0 015.337 2.064l1.145 1.034-2.26 2.333-1.005-.915c-.863-.787-2.006-1.22-3.217-1.22-2.651 0-4.808 2.14-4.808 4.77 0 2.64 2.157 4.787 4.808 4.787 1.198 0 2.34-.44 3.217-1.239l.968-.88z" fill="#fff"/></symbol><symbol fill="none" viewBox="0 0 50 44" id="ico-linkedin" xmlns="http://www.w3.org/2000/svg"><path d="M37.43 0h-24.9C5.63 0 0 4.959 0 11.035V33c0 6.041 5.63 11 12.53 11h24.94C44.37 44 50 39.041 50 32.965v-21.93C49.96 4.959 44.33 0 37.43 0zM16.655 35.619H9.516V17.46h7.138V35.62zm-3.609-20.952c-2.022 0-3.648-1.432-3.648-3.213 0-1.781 1.626-3.213 3.648-3.213 2.022 0 3.648 1.432 3.648 3.213-.04 1.78-1.665 3.213-3.648 3.213zm27.439 20.952h-5.988v-8.8c0-2.13-.317-4.854-3.608-4.854-3.37 0-3.925 2.305-3.925 4.714v8.94h-5.948V17.46h5.551v2.445h.159c.872-1.397 2.894-2.48 6.066-2.48 6.543 0 7.693 3.318 7.693 8.242v9.952z" fill="currentColor"/></symbol><symbol fill="none" viewBox="0 0 116 111" id="ico-smile" xmlns="http://www.w3.org/2000/svg"><path d="M58 0C26.019 0 0 24.897 0 55.5S26.019 111 58 111s58-24.897 58-55.5S89.981 0 58 0zm0 100.909c-26.166 0-47.454-20.37-47.454-45.409 0-25.039 21.288-45.41 47.454-45.41s47.455 20.371 47.455 45.41c0 25.039-21.289 45.409-47.455 45.409z" fill="#fff"/><path d="M72.168 69.057c-7.813 7.475-20.523 7.476-28.336 0-2.059-1.97-5.397-1.97-7.456 0-2.06 1.97-2.06 5.165 0 7.136C42.338 81.899 50.166 84.75 58 84.75c7.83 0 15.664-2.853 21.625-8.557 2.06-1.97 2.06-5.165 0-7.135-2.06-1.971-5.398-1.97-7.457 0zM40.474 49.492c1.31-1.25 2.06-2.986 2.06-4.756 0-1.769-.75-3.505-2.06-4.756-1.308-1.251-3.122-1.97-4.971-1.97-1.853 0-3.663.719-4.97 1.97-1.312 1.252-2.06 2.987-2.06 4.756 0 1.77.748 3.505 2.06 4.757 1.307 1.254 3.121 1.97 4.97 1.97 1.849 0 3.663-.716 4.97-1.97zM80.497 38.01c-1.849 0-3.663.719-4.97 1.97-1.308 1.252-2.06 2.984-2.06 4.756 0 1.773.752 3.505 2.06 4.757 1.307 1.254 3.121 1.97 4.97 1.97 1.849 0 3.663-.716 4.97-1.97 1.308-1.252 2.06-2.984 2.06-4.757 0-1.769-.752-3.505-2.06-4.756-1.307-1.251-3.121-1.97-4.97-1.97z" fill="#fff"/></symbol></svg>